<svg xmlns="http://www.w3.org/2000/svg" version="1.1" xmlns:xlink="http://www.w3.org/1999/xlink" xmlns:svgjs="http://svgjs.dev/svgjs" width="1500" height="231" viewBox="0 0 1500 231"><g transform="matrix(1,0,0,1,-0.9090909090909918,-0.7375538955946155)"><svg viewBox="0 0 396 61" data-background-color="#ffffff" preserveAspectRatio="xMidYMid meet" height="231" width="1500" xmlns="http://www.w3.org/2000/svg" xmlns:xlink="http://www.w3.org/1999/xlink"><g id="tight-bounds" transform="matrix(1,0,0,1,0.2400000000000091,0.19476531442109035)"><svg viewBox="0 0 395.52 60.61046937115781" height="60.61046937115781" width="395.52"><g><svg viewBox="0 0 537.8339564146801 82.41901431543435" height="60.61046937115781" width="395.52"><g><rect width="5.378170598689322" height="59.935679730109634" x="122.85680519114962" y="11.24166729266236" fill="#77d4fc" opacity="1" stroke-width="0" stroke="transparent" fill-opacity="1" class="rect-yte-0" data-fill-palette-color="primary" rx="1%" id="yte-0" data-palette-color="#77d4fc"></rect></g><g transform="matrix(1,0,0,1,142.3139564146801,11.39076102333427)"><svg viewBox="0 0 395.52 59.63749226876581" height="59.63749226876581" width="395.52"><g id="textblocktransform"><svg viewBox="0 0 395.52 59.63749226876581" height="59.63749226876581" width="395.52" id="textblock"><g><svg viewBox="0 0 395.52 59.63749226876581" height="59.63749226876581" width="395.52"><g transform="matrix(1,0,0,1,0,0)"><svg width="395.52" viewBox="3.15 -38.84 260.5 39.28" height="59.63749226876581" data-palette-color="#77d4fc"><g class="wordmark-text-0" data-fill-palette-color="primary" id="text-0"><path d="M23.44-8.59L23.44 0 3.15 0 3.15-8.59 7.06-8.59 7.06-30.25 3.15-30.25 3.15-38.84 28.1-38.84Q34.16-38.84 37-36.4 39.84-33.96 39.84-28.3L39.84-28.3Q39.84-24.51 37.72-22.46 35.6-20.41 31.69-19.7L31.69-19.7Q35.21-19.14 36.76-17.07 38.31-14.99 38.31-11.89L38.31-11.89 38.31-8.74 43.75-8.74 43.75 0 35.89 0Q33.37 0 31.84-0.18 30.3-0.37 29.41-1.06 28.52-1.76 27.93-3.25L27.93-3.25Q27.05-5.49 27.05-10.74L27.05-10.74Q27.05-13.75 26.07-15.2 25.1-16.65 22.51-16.65L22.51-16.65 19.56-16.65 19.56-8.59 23.44-8.59ZM23.39-30.25L19.56-30.25 19.56-22.19 22.9-22.19Q25.56-22.19 26.86-23.14 28.15-24.1 28.15-26.49L28.15-26.49Q28.15-28.25 26.82-29.25 25.49-30.25 23.39-30.25L23.39-30.25ZM59.81 0.44L59.81 0.44Q55.27 0.44 51.93-1.25L51.93-1.25Q48.56-2.91 46.76-6.01 44.97-9.11 44.97-13.26L44.97-13.26Q44.97-17.36 46.73-20.39L46.73-20.39Q48.46-23.39 51.63-25.02 54.81-26.66 59.08-26.66L59.08-26.66Q63.01-26.66 66.01-25.12L66.01-25.12Q69.02-23.56 70.66-20.7 72.31-17.85 72.31-14.04L72.31-14.04Q72.31-12.72 71.92-11.55L71.92-11.55 56.71-11.55Q56.71-9.25 58.44-7.87 60.18-6.49 62.62-6.49L62.62-6.49Q64.48-6.49 66.7-7.14 68.92-7.79 71.16-9.16L71.16-9.16 71.58-9.01 71.58-2.44Q69.06-1 66.42-0.28 63.77 0.44 59.81 0.44ZM56.71-16.55L56.71-16.55 56.71-15.84 62.96-15.84 62.96-16.36Q62.96-18.09 62.17-19.35 61.37-20.61 59.81-20.61L59.81-20.61Q58.52-20.61 57.61-19.32 56.71-18.04 56.71-16.55ZM109.05-16.6L109.05-16.6 109.05-7.06 112.45-7.06 112.45 0 97.33 0 97.33-16.65Q97.33-17.7 96.66-18.51 95.99-19.31 95.04-19.31L95.04-19.31Q93.26-19.31 92.79-17.53L92.79-17.53Q92.3-15.7 92.3-12.4L92.3-12.4 92.3-7.06 92.35-7.06 92.35 0 77.09 0 77.09-7.06 80.63-7.06 80.63-18.6 77.09-18.6 77.09-25.2 92.3-26.66 92.3-23Q93.99-25 96.14-25.83 98.29-26.66 101-26.66L101-26.66Q109.05-26.66 109.05-16.6ZM127.19 0.44L127.19 0.44Q117.79 0.44 117.79-9.35L117.79-9.35 117.79-18.99 113.88-18.99 113.88-26.15 117.79-26.15 117.79-31.74 129.48-34.35 129.48-26.15 134.17-26.15 134.17-18.99 129.48-18.99 129.48-10.21Q129.48-9.11 130.31-8.37 131.14-7.64 132.39-7.64L132.39-7.64Q133.29-7.64 134.17-7.79L134.17-7.79 134.17-1Q130.95 0.44 127.19 0.44ZM165.27-16.55L171.52-16.55 171.52 0 138.74 0 138.74-8.59 143.45-8.59 143.45-30.25 138.74-30.25 138.74-38.84 171.52-38.84 171.52-23.39 165.27-23.39 162.93-30.25 155.95-30.25 155.95-23.9 162.2-23.9 162.2-17.5 155.95-17.5 155.95-8.59 162.93-8.59 165.27-16.55ZM182.65 0.44L182.65 0.44Q180.16 0.44 178.14-0.54L178.14-0.54Q176.09-1.49 174.87-3.3 173.64-5.1 173.64-7.5L173.64-7.5Q173.64-10.08 175.09-11.89L175.09-11.89Q176.53-13.65 178.86-14.53 181.19-15.41 183.9-15.41L183.9-15.41Q187.1-15.41 190.05-14.45L190.05-14.45 190.05-15.55Q190.05-17.5 188.4-18.53 186.76-19.56 183.95-19.56L183.95-19.56Q182.75-19.56 181.26-19.26 179.77-18.97 178.36-18.46 176.94-17.94 175.89-17.31L175.89-17.31 175.18-17.6 175.18-24.71Q178.14-25.76 181.21-26.21 184.29-26.66 186.95-26.66L186.95-26.66Q201.79-26.66 201.79-18.31L201.79-18.31 201.79-7.35 204.09-7.35 204.09 0 191.59 0 190.49-4Q189.44-1.95 187.22-0.76 185 0.44 182.65 0.44ZM187.24-5.81L187.24-5.81Q188.05-5.81 188.89-6.08 189.73-6.35 190.05-6.64L190.05-6.64 190.05-10.74Q189.68-10.79 188.88-11.04L188.88-11.04Q188.05-11.25 187.44-11.25L187.44-11.25Q186.14-11.25 185.38-10.45 184.61-9.64 184.61-8.3L184.61-8.3Q184.61-7.3 185.33-6.56 186.05-5.81 187.24-5.81ZM221.59 0.44L221.59 0.44Q216.59 0.44 212.73-2.2L212.73-2.2 211.92 0 207.38 0 207.38-9.64 212.83-9.64Q213.14-7.79 214.56-6.32 215.98-4.86 217.83-4.86L217.83-4.86Q218.54-4.86 219.06-5.25 219.59-5.64 219.59-6.54L219.59-6.54Q219.59-7.45 218.56-8.18L218.56-8.18Q217.51-8.94 215.44-9.91L215.44-9.91Q212.92-11.16 211.34-12.18L211.34-12.18Q209.73-13.21 208.55-14.88 207.38-16.55 207.38-18.9L207.38-18.9Q207.38-21.31 208.97-23.1L208.97-23.1Q210.56-24.85 213.14-25.76 215.73-26.66 218.78-26.66L218.78-26.66Q222.76-26.66 226.18-24.56L226.18-24.56 226.79-26.15 230.84-26.15 230.84-18.36 226.13-18.36Q225.52-19.95 224.37-20.85 223.23-21.75 221.69-21.75L221.69-21.75Q219.88-21.75 219.88-20.61L219.88-20.61Q219.91-19.82 220.83-19.26L220.83-19.26Q221.76-18.73 223.84-17.8L223.84-17.8Q225.13-17.26 226.21-16.72 227.28-16.19 228.13-15.7L228.13-15.7Q229.84-14.7 231.11-12.88 232.38-11.06 232.38-8.35L232.38-8.35Q232.38-5.47 230.89-3.52L230.89-3.52Q229.4-1.54 226.94-0.55 224.47 0.44 221.59 0.44ZM251.15 0.44L251.15 0.44Q246.61 0.44 243.27-1.25L243.27-1.25Q239.9-2.91 238.11-6.01 236.31-9.11 236.31-13.26L236.31-13.26Q236.31-17.36 238.07-20.39L238.07-20.39Q239.8-23.39 242.98-25.02 246.15-26.66 250.42-26.66L250.42-26.66Q254.35-26.66 257.36-25.12L257.36-25.12Q260.36-23.56 262.01-20.7 263.65-17.85 263.65-14.04L263.65-14.04Q263.65-12.72 263.26-11.55L263.26-11.55 248.05-11.55Q248.05-9.25 249.79-7.87 251.52-6.49 253.96-6.49L253.96-6.49Q255.82-6.49 258.04-7.14 260.26-7.79 262.51-9.16L262.51-9.16 262.92-9.01 262.92-2.44Q260.41-1 257.76-0.28 255.11 0.44 251.15 0.44ZM248.05-16.55L248.05-16.55 248.05-15.84 254.3-15.84 254.3-16.36Q254.3-18.09 253.51-19.35 252.72-20.61 251.15-20.61L251.15-20.61Q249.86-20.61 248.96-19.32 248.05-18.04 248.05-16.55Z" fill="#77d4fc" data-fill-palette-color="primary"></path></g></svg></g></svg></g></svg></g></svg></g><g><svg viewBox="0 0 108.77782456630845 82.41901431543435" height="82.41901431543435" width="108.77782456630845"><g><svg xmlns="http://www.w3.org/2000/svg" xmlns:xlink="http://www.w3.org/1999/xlink" version="1.1" x="0" y="0" viewBox="-346 268.829 99.87301606251089 75.67199999999997" enable-background="new -346 256 100 100" xml:space="preserve" height="82.41901431543435" width="108.77782456630845" class="icon-icon-0" data-fill-palette-color="accent" id="icon-0"><g fill="#4b91f1" data-fill-palette-color="accent"><path d="M-246.711 326.434L-264.638 310.572A1.74 1.74 0 0 0-266.227 310.195L-278.09 313.325A1.73 1.73 0 0 0-279.368 314.804L-279.659 317.406-285.574 315.956-285.575 302.103-279.346 307.791-273.745 301.657-309.711 268.829-325.698 283.147V276.49H-334.242V290.8L-346 301.331-340.458 307.518-334.241 301.952-334.202 344.501-323.613 344.5V321.417H-313.431V344.499L-285.57 344.498-285.573 317.91-279.872 319.307-280.735 327.004A1.72 1.72 0 0 0-280.157 328.498L-262.41 344.07C-262.082 344.358-261.675 344.5-261.268 344.5-260.791 344.5-260.319 344.304-259.977 343.921L-246.566 328.882C-246.258 328.538-246.103 328.087-246.13 327.628A1.74 1.74 0 0 0-246.711 326.434M-313.432 311.913H-323.614V301.412H-313.432zM-295.839 311.913H-306.021V301.412H-295.839zM-261.419 340.337L-277.197 326.492-276.483 320.137-273.837 320.785A2.75 2.75 0 0 0-271.753 323.246 2.764 2.764 0 0 0-270.436 317.879 2.77 2.77 0 0 0-273.338 318.954L-276.27 318.235-276.06 316.368-266.239 313.776-250.305 327.874z" fill="#4b91f1" data-fill-palette-color="accent"></path></g></svg></g></svg></g></svg></g><defs></defs></svg><rect width="395.52" height="60.61046937115781" fill="none" stroke="none" visibility="hidden"></rect></g></svg></g></svg>